<svg xmlns="http://www.w3.org/2000/svg" xmlns:xlink="http://www.w3.org/1999/xlink" version="1.1" style="enable-background:new 0 0 512 512;" xml:space="preserve" width="512" height="512"><rect id="backgroundrect" width="100%" height="100%" x="0" y="0" fill="none" stroke="none"/>


















<g class="currentLayer" style=""><title>Layer 1</title><g id="svg_1" class="" fill-opacity="1" fill="#ffffff">
	<g id="svg_2" fill="#ffffff">
		<path d="M45,31C20.147,31,0,51.147,0,76c0,24.853,20.147,45,45,45h407V31H45z" id="svg_3" fill="#ffffff"/>
	</g>
</g><g id="svg_4" class="selected" fill-opacity="1" fill="#ffffff">
	<g id="svg_5" fill="#ffffff">
		<path d="M407,271c-24.814,0-45,20.186-45,45c0,24.814,20.186,45,45,45h105v-90H407z M422,331h-30v-30h30V331z" id="svg_6" fill="#ffffff"/>
	</g>
</g><g id="svg_7" class="" fill-opacity="1" fill="#ffffff">
	<g id="svg_8" fill="#ffffff">
		<path d="M407,241h105v-90c-4.484,0-467,0-467,0c-16.948,0-32.426-5.865-45-15.383C0,142.463,0,395.549,0,406    c0,41.42,33.578,75,75,75h437v-90H407c-41.353,0-75-33.647-75-75C332,274.647,365.647,241,407,241z" id="svg_9" fill="#ffffff"/>
	</g>
</g><g id="svg_10">
</g><g id="svg_11">
</g><g id="svg_12">
</g><g id="svg_13">
</g><g id="svg_14">
</g><g id="svg_15">
</g><g id="svg_16">
</g><g id="svg_17">
</g><g id="svg_18">
</g><g id="svg_19">
</g><g id="svg_20">
</g><g id="svg_21">
</g><g id="svg_22">
</g><g id="svg_23">
</g><g id="svg_24">
</g></g></svg>